# xmcd
#
# Track frame offsets: 
#        182
#        9477
#        20870
#        31707
#        42270
#        53307
#        65032
#        75635
#        86477
#        95805
#        107552
#        119647
#        130490
#        142350
#        152900
#        163007
#        176807
#        188525
#        198340
#        210100
#        223230
#        233192
#        242970
#        254167
#        265052
#
# Disc length: 3701 seconds
#
# Revision: 2
# Processed by: cddbd v1.4PL0 Copyright (c) Steve Scherf et al.
# Submitted via: ExactAudioCopy v0.90b3
#
DISCID=6e0e7319
DTITLE=George Jones - Cup Of Loneliness (The Classic Mercury Years) Li
DTITLE=mited Edition - Disc 2
DYEAR=1900
DGENRE=Country
TTITLE0=Big Harlan Taylor
TTITLE1=Everything Ain't Right
TTITLE2=Relief Is Just A Swallow Away
TTITLE3=Talk To Me Lonesome Heart
TTITLE4=Accidentally On Purpose
TTITLE5=Revenooer Man
TTITLE6=The Last Town I Painted
TTITLE7=Your Old Standby
TTITLE8=Watcha Gonna Do
TTITLE9=You Better Treat You Man Right
TTITLE10=Out Of Control
TTITLE11=Glad To Let Her Go
TTITLE12=You're Still On My Mind
TTITLE13=Tarnished Angel
TTITLE14=Slave Lover
TTITLE15=Family Bible
TTITLE16=Window Up Above
TTITLE17=Nobody's Lonesome For Me
TTITLE18=Heartaches By The Number
TTITLE19=I Love You Because
TTITLE20=(I'll Be There) If You Ever Want Me
TTITLE21=If You Got The Money (I Got The Time)
TTITLE22=Life To Go
TTITLE23=Tender Years
TTITLE24=Achin', Breakin' Heart
EXTD=
EXTT0=
EXTT1=
EXTT2=
EXTT3=
EXTT4=
EXTT5=
EXTT6=
EXTT7=
EXTT8=
EXTT9=
EXTT10=
EXTT11=
EXTT12=
EXTT13=
EXTT14=
EXTT15=
EXTT16=
EXTT17=
EXTT18=
EXTT19=
EXTT20=
EXTT21=
EXTT22=
EXTT23=
EXTT24=
PLAYORDER=
